<mxfile host="app.diagrams.net" modified="2023-05-22T07:22:58.493Z" agent="Mozilla/5.0 (Windows NT 10.0; Win64; x64) AppleWebKit/537.36 (KHTML, like Gecko) Chrome/113.0.0.0 Safari/537.36" etag="etUOwFIhWi_PxkRlrITq" version="21.3.2" type="device">
  <diagram name="Page-1" id="O2ltFx7MD1BKSwTohkvc">
    <mxGraphModel dx="1727" dy="922" grid="1" gridSize="10" guides="1" tooltips="1" connect="1" arrows="1" fold="1" page="1" pageScale="1" pageWidth="827" pageHeight="1169" math="0" shadow="0">
      <root>
        <mxCell id="0" />
        <mxCell id="1" parent="0" />
        <mxCell id="6VsXwScRPvSoh_kbBZkx-1" value="Order Service" style="rounded=1;whiteSpace=wrap;html=1;" parent="1" vertex="1">
          <mxGeometry x="60" y="280" width="120" height="60" as="geometry" />
        </mxCell>
        <mxCell id="6VsXwScRPvSoh_kbBZkx-2" value="Airline Approval Service" style="rounded=1;whiteSpace=wrap;html=1;" parent="1" vertex="1">
          <mxGeometry x="540" y="450" width="120" height="60" as="geometry" />
        </mxCell>
        <mxCell id="6VsXwScRPvSoh_kbBZkx-3" value="Payment Service" style="rounded=1;whiteSpace=wrap;html=1;" parent="1" vertex="1">
          <mxGeometry x="530" y="100" width="120" height="60" as="geometry" />
        </mxCell>
        <mxCell id="6VsXwScRPvSoh_kbBZkx-4" value="Customer MDM" style="rounded=1;whiteSpace=wrap;html=1;" parent="1" vertex="1">
          <mxGeometry x="214" y="80" width="120" height="60" as="geometry" />
        </mxCell>
        <mxCell id="6VsXwScRPvSoh_kbBZkx-5" value="Airline MDM" style="rounded=1;whiteSpace=wrap;html=1;" parent="1" vertex="1">
          <mxGeometry x="214" y="460" width="120" height="60" as="geometry" />
        </mxCell>
        <mxCell id="6VsXwScRPvSoh_kbBZkx-10" value="Kafka" style="ellipse;whiteSpace=wrap;html=1;" parent="1" vertex="1">
          <mxGeometry x="334" y="255" width="160" height="110" as="geometry" />
        </mxCell>
        <mxCell id="2HVSIsV1HwQeRApAK8-j-1" value="KeyCloak" style="rounded=1;whiteSpace=wrap;html=1;" vertex="1" parent="1">
          <mxGeometry x="230" y="650" width="120" height="60" as="geometry" />
        </mxCell>
        <mxCell id="2HVSIsV1HwQeRApAK8-j-2" value="Postgres" style="shape=cylinder3;whiteSpace=wrap;html=1;boundedLbl=1;backgroundOutline=1;size=15;" vertex="1" parent="1">
          <mxGeometry x="470" y="620" width="110" height="120" as="geometry" />
        </mxCell>
        <mxCell id="2HVSIsV1HwQeRApAK8-j-4" value="Schema&lt;br&gt;Registry" style="rounded=1;whiteSpace=wrap;html=1;" vertex="1" parent="1">
          <mxGeometry x="640" y="280" width="120" height="60" as="geometry" />
        </mxCell>
        <mxCell id="2HVSIsV1HwQeRApAK8-j-5" value="" style="endArrow=classic;startArrow=classic;html=1;rounded=0;" edge="1" parent="1" source="6VsXwScRPvSoh_kbBZkx-1" target="6VsXwScRPvSoh_kbBZkx-10">
          <mxGeometry width="50" height="50" relative="1" as="geometry">
            <mxPoint x="50" y="510" as="sourcePoint" />
            <mxPoint x="100" y="460" as="targetPoint" />
          </mxGeometry>
        </mxCell>
        <mxCell id="2HVSIsV1HwQeRApAK8-j-7" value="" style="endArrow=classic;startArrow=classic;html=1;rounded=0;" edge="1" parent="1" source="6VsXwScRPvSoh_kbBZkx-4" target="6VsXwScRPvSoh_kbBZkx-10">
          <mxGeometry width="50" height="50" relative="1" as="geometry">
            <mxPoint x="190" y="320" as="sourcePoint" />
            <mxPoint x="344" y="320" as="targetPoint" />
          </mxGeometry>
        </mxCell>
        <mxCell id="2HVSIsV1HwQeRApAK8-j-8" value="" style="endArrow=classic;startArrow=classic;html=1;rounded=0;" edge="1" parent="1" source="6VsXwScRPvSoh_kbBZkx-3" target="6VsXwScRPvSoh_kbBZkx-10">
          <mxGeometry width="50" height="50" relative="1" as="geometry">
            <mxPoint x="305" y="150" as="sourcePoint" />
            <mxPoint x="389" y="270" as="targetPoint" />
          </mxGeometry>
        </mxCell>
        <mxCell id="2HVSIsV1HwQeRApAK8-j-9" value="" style="endArrow=classic;startArrow=classic;html=1;rounded=0;" edge="1" parent="1" source="2HVSIsV1HwQeRApAK8-j-4" target="6VsXwScRPvSoh_kbBZkx-10">
          <mxGeometry width="50" height="50" relative="1" as="geometry">
            <mxPoint x="571" y="170" as="sourcePoint" />
            <mxPoint x="469" y="274" as="targetPoint" />
          </mxGeometry>
        </mxCell>
        <mxCell id="2HVSIsV1HwQeRApAK8-j-10" value="" style="endArrow=classic;startArrow=classic;html=1;rounded=0;exitX=0.567;exitY=-0.017;exitDx=0;exitDy=0;exitPerimeter=0;" edge="1" parent="1" source="6VsXwScRPvSoh_kbBZkx-2" target="6VsXwScRPvSoh_kbBZkx-10">
          <mxGeometry width="50" height="50" relative="1" as="geometry">
            <mxPoint x="650" y="312" as="sourcePoint" />
            <mxPoint x="504" y="317" as="targetPoint" />
          </mxGeometry>
        </mxCell>
        <mxCell id="2HVSIsV1HwQeRApAK8-j-11" value="" style="endArrow=classic;startArrow=classic;html=1;rounded=0;" edge="1" parent="1" source="6VsXwScRPvSoh_kbBZkx-5" target="6VsXwScRPvSoh_kbBZkx-10">
          <mxGeometry width="50" height="50" relative="1" as="geometry">
            <mxPoint x="530" y="469" as="sourcePoint" />
            <mxPoint x="392" y="370" as="targetPoint" />
          </mxGeometry>
        </mxCell>
      </root>
    </mxGraphModel>
  </diagram>
</mxfile>
